<svg width="31" height="31" viewBox="0 0 31 31" fill="none" xmlns="http://www.w3.org/2000/svg">
<path d="M9.66211 2.44151C9.21094 1.35166 8.02148 0.771585 6.88477 1.08213L1.72852 2.48838C0.708984 2.76963 0 3.69541 0 4.7501C0 19.2462 11.7539 31.0001 26.25 31.0001C27.3047 31.0001 28.2305 30.2911 28.5117 29.2716L29.918 24.1153C30.2285 22.9786 29.6484 21.7892 28.5586 21.338L22.9336 18.9942C21.9785 18.5958 20.8711 18.8712 20.2207 19.6739L17.8535 22.5626C13.7285 20.6114 10.3887 17.2716 8.4375 13.1466L11.3262 10.7853C12.1289 10.129 12.4043 9.02744 12.0059 8.07237L9.66211 2.44737V2.44151Z" fill="#1A1C1E"/>
</svg>
